<?xml version="1.0" encoding="UTF-8"?><svg id="a" xmlns="http://www.w3.org/2000/svg" viewBox="0 0 474.75 392.8"><g id="b"><path id="c" d="M474.75,87.32c0-11.61-3-15.37-10.21-16.89-19.28-4.07-38.54-8.28-57.8-12.45-17.23-3.73-34.44-7.49-51.67-11.23-17.22-3.74-34.45-7.45-51.68-11.18-25.26-5.48-50.52-10.99-75.79-16.45-17.52-3.79-35.06-7.49-52.58-11.29-10.65-2.31-21.26-4.83-31.92-7.07-4.16-.87-8.34-1.48-12.38,1.09-13.78,8.76-27.66,17.37-41.5,26.03-14.27,8.92-28.55,17.82-42.83,26.74-13.51,8.43-27.04,16.83-40.51,25.33-3.83,2.41-6.21,5.75-5.83,10.63,.64,8.3,1.1,16.62,1.71,24.92,.31,4.25,.78,8.48,1.17,12.72,.87,9.57,1.77,19.14,2.6,28.72,.63,7.31,1.14,14.63,1.79,21.93,.87,9.78,1.86,19.54,2.73,29.32,.43,4.85,.63,9.72,1.09,14.57,1.05,11.14,2.24,22.27,3.27,33.42,.68,7.41,.99,14.86,1.9,22.24,.28,2.3,1.68,4.65,3.09,6.6,3.68,5.07,9.58,4.65,14.9,5.34,8.75,1.14,17.54,1.99,26.3,3.01,8.85,1.04,17.69,2.16,26.55,3.21,8.27,.97,16.54,1.85,24.81,2.84,8.55,1.03,17.08,2.2,25.64,3.21,8.37,.99,16.76,1.79,25.12,2.79,8.56,1.02,17.1,2.22,25.66,3.24,8.65,1.04,17.32,1.92,25.97,2.96,8.26,.99,16.49,2.16,24.75,3.14,10.43,1.24,20.87,2.32,31.3,3.53,10.33,1.2,20.67,2.39,30.98,3.74,4.37,.57,9.02,.44,12.66,3.62,3.22,2.81,6.43,5.64,9.64,8.47,9.49,8.35,18.96,16.73,28.46,25.06,10.1,8.85,20.23,17.68,30.37,26.49,4.23,3.67,7.99,7.83,14.69,7.04,5.82-.69,9.57-2.98,10.96-8.9,2.48-10.51,4.87-21.04,7.23-31.58,5.38-24.06,10.69-48.13,16.1-72.18,3.05-13.53,6.31-27.02,9.37-40.55,4.67-20.66,9.25-41.35,13.87-62.03,5.51-24.65,11.03-49.29,16.53-73.94,1.44-6.46,2.79-12.93,3.5-16.21Z"/></g></svg>