<?xml version="1.0" encoding="utf-8"?>
<!-- Generator: Adobe Illustrator 26.1.0, SVG Export Plug-In . SVG Version: 6.00 Build 0)  -->
<svg version="1.1" id="Layer_1" xmlns="http://www.w3.org/2000/svg" xmlns:xlink="http://www.w3.org/1999/xlink" x="0px" y="0px"
	 viewBox="0 0 500 500" style="enable-background:new 0 0 500 500;" xml:space="preserve">
<style type="text/css">
	.st0{fill:#FFFFFF;}
</style>
<path id="fundo" class="st0" d="M490.03,137.57c0-11.61-3-15.37-10.21-16.89c-19.28-4.07-38.54-8.28-57.8-12.45
	c-17.23-3.73-34.44-7.49-51.67-11.23c-17.22-3.74-34.45-7.45-51.68-11.18c-25.26-5.48-50.52-10.99-75.79-16.45
	c-17.52-3.79-35.06-7.49-52.58-11.29c-10.65-2.31-21.26-4.83-31.92-7.07c-4.16-0.87-8.34-1.48-12.38,1.09
	c-13.78,8.76-27.66,17.37-41.5,26.03c-14.27,8.92-28.55,17.82-42.83,26.74c-13.51,8.43-27.04,16.83-40.51,25.33
	c-3.83,2.41-6.21,5.75-5.83,10.63c0.64,8.3,1.1,16.62,1.71,24.92c0.31,4.25,0.78,8.48,1.17,12.72c0.87,9.57,1.77,19.14,2.6,28.72
	c0.63,7.31,1.14,14.63,1.79,21.93c0.87,9.78,1.86,19.54,2.73,29.32c0.43,4.85,0.63,9.72,1.09,14.57
	c1.05,11.14,2.24,22.27,3.27,33.42c0.68,7.41,0.99,14.86,1.9,22.24c0.28,2.3,1.68,4.65,3.09,6.6c3.68,5.07,9.58,4.65,14.9,5.34
	c8.75,1.14,17.54,1.99,26.3,3.01c8.85,1.04,17.69,2.16,26.55,3.21c8.27,0.97,16.54,1.85,24.81,2.84c8.55,1.03,17.08,2.2,25.64,3.21
	c8.37,0.99,16.76,1.79,25.12,2.79c8.56,1.02,17.1,2.22,25.66,3.24c8.65,1.04,17.32,1.92,25.97,2.96c8.26,0.99,16.49,2.16,24.75,3.14
	c10.43,1.24,20.87,2.32,31.3,3.53c10.33,1.2,20.67,2.39,30.98,3.74c4.37,0.57,9.02,0.44,12.66,3.62c3.22,2.81,6.43,5.64,9.64,8.47
	c9.49,8.35,18.96,16.73,28.46,25.06c10.1,8.85,20.23,17.68,30.37,26.49c4.23,3.67,7.99,7.83,14.69,7.04
	c5.82-0.69,9.57-2.98,10.96-8.9c2.48-10.51,4.87-21.04,7.23-31.58c5.38-24.06,10.69-48.13,16.1-72.18
	c3.05-13.53,6.31-27.02,9.37-40.55c4.67-20.66,9.25-41.35,13.87-62.03c5.51-24.65,11.03-49.29,16.53-73.94
	C487.97,147.33,489.32,140.86,490.03,137.57z"/>
<path id="O" d="M437.32,200.96c-6.88-15.98-18.42-26.99-34.85-32.75c-11.88-4.17-24.08-4.74-36.44-2.65
	c-24.52,4.15-42.24,20.76-48.36,45.12c-2.97,11.8-3.13,23.84-0.6,35.78c4.51,21.3,16.53,36.69,36.92,44.76
	c13.95,5.52,28.52,5.92,43.01,2.25c15.18-3.84,27.39-12.25,35.78-25.63c7.22-11.52,10.07-24.31,10.11-39.79
	C442.74,220.02,441.32,210.26,437.32,200.96z M418.02,233.92c-0.11,1.74-0.31,3.47-0.62,5.18c-1.36,7.67-4.68,14.92-10.25,21.48
	c-1.46,1.73-3.04,3.26-4.73,4.6c-0.84,0.67-1.71,1.3-2.61,1.88c-4.02,2.62-8.55,4.31-13.45,5.16c-0.54,0.09-1.09,0.18-1.65,0.25
	c-1.63,0.22-3.23,0.35-4.81,0.41c-4.73,0.15-9.22-0.46-13.42-1.89c-1.4-0.48-2.77-1.05-4.1-1.71c-2.67-1.32-5.2-3.02-7.58-5.1
	c-1.19-1.04-2.35-2.18-3.46-3.42c-1.91-2.11-3.55-4.36-4.94-6.72c-0.55-0.95-1.07-1.91-1.54-2.9c-0.47-0.98-0.9-1.99-1.29-3.01
	c-0.58-1.53-1.08-3.1-1.48-4.71c-0.27-1.07-0.5-2.16-0.68-3.27c-0.19-1.11-0.34-2.23-0.44-3.37c-0.03-0.3-0.06-0.59-0.08-0.88
	c-0.2-2.05-0.4-3.99-0.5-5.03c0.03-1.8,0.11-3.56,0.27-5.27c0.15-1.71,0.37-3.39,0.65-5.01c0.57-3.26,1.41-6.34,2.57-9.25
	c2.31-5.82,5.88-10.95,10.98-15.39c1.54-1.34,3.13-2.51,4.77-3.53c4.93-3.04,10.32-4.65,16.03-5.04c2.54-0.17,5.14-0.1,7.8,0.19
	c13.11,1.44,22.52,8.11,28.21,17.9c0.78,1.34,1.48,2.73,2.12,4.17c0.21,0.48,0.42,0.97,0.61,1.46c1.18,2.96,2.09,6.13,2.72,9.45
	C417.98,225.09,418.3,229.56,418.02,233.92z"/>
<path id="_x7E_" d="M290.18,154.99c5.25,0,10.2,0,15.14,0c0.76,10.79-4.99,19.18-15.16,21.2c-6.18,1.23-12.03,0.39-17.63-2.56
	c-3.17-1.66-6.35-3.42-9.72-4.54c-4.21-1.41-7.3,0.33-8.45,4.59c-0.58,2.15-1.61,2.59-3.56,2.52c-3.59-0.12-7.19,0.05-10.77-0.11
	c-0.75-0.03-2.14-1.1-2.08-1.54c0.68-5.12,1.4-10.25,5.41-14.15c6.6-6.41,14.47-7.1,22.74-4.76c3.78,1.07,7.18,3.41,10.87,4.88
	c2.3,0.92,4.85,1.86,7.24,1.76C288.46,162.13,289.04,158.21,290.18,154.99z"/>
<path id="A" d="M308.22,224.21c-0.05-5.92-0.47-11.97-1.75-17.73c-2.01-9.02-7.07-16.17-15.58-20.48
	c-8.59-4.35-17.73-5.23-27.02-3.66c-11.33,1.91-20.28,7.39-25.06,18.43c-2.7,6.24-3.66,12.79-3.68,19.5
	c-0.05,23.55-0.02,47.11-0.01,70.66c0,1.05,0.12,2.09,0.18,3.1c7.89,0,15.42,0,23.27,0c0-10.94,0-21.67,0-32.59
	c8.85,0,17.37,0,26.35,0c0,10.93,0,21.73,0,32.62c7.98,0,15.51,0,23.38,0c0-1.25,0-2.32,0-3.39
	C308.3,268.52,308.42,246.37,308.22,224.21z M284.71,239.49c-8.65,0-17.13,0-26.14,0c0-7.8-0.33-15.38,0.1-22.91
	c0.4-7.12,6-12.06,12.77-12.18c7.18-0.12,12.63,4.33,13.15,11.85C285.12,223.87,284.71,231.56,284.71,239.49z"/>
<path id="H" d="M174.84,217.66c8.47,0,16.54-0.02,24.61,0.01c2.37,0.01,1.78-1.69,1.79-2.95c0.03-15.07,0.02-30.14,0.02-45.22
	c0-3.9,0-3.91,3.85-3.91c6.37,0,12.74,0,19.34,0c0,42.94,0,85.59,0,128.43c-7.62,0-15.16,0-23.13,0c0-18.14,0-36.23,0-54.51
	c-8.97,0-17.51,0-26.3,0c0,18.2,0,36.3,0,54.55c-7.81,0-15.36,0-23.31,0c-0.06-1.05-0.17-2.09-0.17-3.14
	c-0.01-40.62,0.02-81.25-0.06-121.87c-0.01-2.67,0.59-3.63,3.44-3.53c6.56,0.22,13.14,0.07,19.92,0.07
	C174.84,182.95,174.84,200.06,174.84,217.66z"/>
<path id="C" d="M136.5,268.42c0,8.07,0,16.13,0,24.78c-3.85,0.66-7.98,1.86-12.15,1.99c-10.03,0.33-20.06,0.61-29.87-2.54
	c-17.87-5.72-31.03-16.78-37.78-34.32c-9.17-23.83-7.8-47.19,6.55-68.73c9.83-14.75,24.6-22.43,42.03-24.44
	c13.38-1.54,23.39-0.52,31.27,1.98c0,3.98,0,8.05,0,12.12c0,4.07,0,8.15,0,12.07c-5.16-1.11-10.04-2.56-15.02-3.17
	c-21.89-2.65-40.12,9.03-44.21,31.66c-1.66,9.2-1.15,18.17,1.7,27.04c4.69,14.63,18.63,24.99,33.98,25.09
	c3.96,0.03,7.98-0.08,11.89-0.66C128.66,270.74,132.35,269.48,136.5,268.42z"/>
</svg>
