<?xml version="1.0" encoding="utf-8"?>
<!-- Generator: Adobe Illustrator 26.1.0, SVG Export Plug-In . SVG Version: 6.00 Build 0)  -->
<svg version="1.1" id="Layer_1" xmlns="http://www.w3.org/2000/svg" xmlns:xlink="http://www.w3.org/1999/xlink" x="0px" y="0px"
	 viewBox="0 0 604.6 604.6" style="enable-background:new 0 0 604.6 604.6;" xml:space="preserve">
<style type="text/css">
	.st0{fill:none;stroke:#FFFFFF;stroke-width:50;stroke-miterlimit:10;}
	.st1{display:none;}
	.st2{display:inline;fill:#FFFFFF;}
	.st3{fill:#FFFFFF;}
</style>
<g id="c_00000139284751126578730110000011454833702803238285_">
	<path id="d_00000044895123476734646030000006332201671411998605_" class="st0" d="M540.3,194.3c0-11.6-3-15.4-10.2-16.9
		c-19.3-4.1-38.5-8.3-57.8-12.4c-17.2-3.7-34.4-7.5-51.7-11.2c-17.2-3.7-34.5-7.4-51.7-11.2c-25.3-5.5-50.5-11-75.8-16.4
		c-17.5-3.8-35.1-7.5-52.6-11.3c-10.6-2.3-21.3-4.8-31.9-7.1c-4.2-0.9-8.3-1.5-12.4,1.1c-13.8,8.8-27.7,17.4-41.5,26
		c-14.3,8.9-28.6,17.8-42.8,26.7c-13.5,8.4-27,16.8-40.5,25.3c-3.8,2.4-6.2,5.8-5.8,10.6c0.6,8.3,1.1,16.6,1.7,24.9
		c0.3,4.2,0.8,8.5,1.2,12.7c0.9,9.6,1.8,19.1,2.6,28.7c0.6,7.3,1.1,14.6,1.8,21.9c0.9,9.8,1.9,19.5,2.7,29.3
		c0.4,4.9,0.6,9.7,1.1,14.6c1.1,11.1,2.2,22.3,3.3,33.4c0.7,7.4,1,14.9,1.9,22.2c0.3,2.3,1.7,4.6,3.1,6.6c3.7,5.1,9.6,4.6,14.9,5.3
		c8.8,1.1,17.5,2,26.3,3c8.9,1,17.7,2.2,26.6,3.2c8.3,1,16.5,1.9,24.8,2.8c8.6,1,17.1,2.2,25.6,3.2c8.4,1,16.8,1.8,25.1,2.8
		c8.6,1,17.1,2.2,25.7,3.2c8.7,1,17.3,1.9,26,3c8.3,1,16.5,2.2,24.8,3.1c10.4,1.2,20.9,2.3,31.3,3.5c10.3,1.2,20.7,2.4,31,3.7
		c4.4,0.6,9,0.4,12.7,3.6c3.2,2.8,6.4,5.6,9.6,8.5c9.5,8.4,19,16.7,28.5,25.1c10.1,8.9,20.2,17.7,30.4,26.5c4.2,3.7,8,7.8,14.7,7
		c5.8-0.7,9.6-3,11-8.9c2.5-10.5,4.9-21,7.2-31.6c5.4-24.1,10.7-48.1,16.1-72.2c3-13.5,6.3-27,9.4-40.5c4.7-20.7,9.2-41.4,13.9-62
		c5.5-24.6,11-49.3,16.5-73.9C538.2,204,539.6,197.6,540.3,194.3L540.3,194.3z"/>
</g>
<g id="a" class="st1">
	<circle class="st2" cx="302.3" cy="302.3" r="302.3"/>
</g>
<g id="b">
	<g id="c">
		<path id="d" d="M540.3,194.3c0-11.6-3-15.4-10.2-16.9c-19.3-4.1-38.5-8.3-57.8-12.4c-17.2-3.7-34.4-7.5-51.7-11.2
			c-17.2-3.7-34.5-7.4-51.7-11.2c-25.3-5.5-50.5-11-75.8-16.4c-17.5-3.8-35.1-7.5-52.6-11.3c-10.6-2.3-21.3-4.8-31.9-7.1
			c-4.2-0.9-8.3-1.5-12.4,1.1c-13.8,8.8-27.7,17.4-41.5,26c-14.3,8.9-28.6,17.8-42.8,26.7c-13.5,8.4-27,16.8-40.5,25.3
			c-3.8,2.4-6.2,5.8-5.8,10.6c0.6,8.3,1.1,16.6,1.7,24.9c0.3,4.2,0.8,8.5,1.2,12.7c0.9,9.6,1.8,19.1,2.6,28.7
			c0.6,7.3,1.1,14.6,1.8,21.9c0.9,9.8,1.9,19.5,2.7,29.3c0.4,4.9,0.6,9.7,1.1,14.6c1.1,11.1,2.2,22.3,3.3,33.4
			c0.7,7.4,1,14.9,1.9,22.2c0.3,2.3,1.7,4.6,3.1,6.6c3.7,5.1,9.6,4.6,14.9,5.3c8.8,1.1,17.5,2,26.3,3c8.9,1,17.7,2.2,26.6,3.2
			c8.3,1,16.5,1.9,24.8,2.8c8.6,1,17.1,2.2,25.6,3.2c8.4,1,16.8,1.8,25.1,2.8c8.6,1,17.1,2.2,25.7,3.2c8.7,1,17.3,1.9,26,3
			c8.3,1,16.5,2.2,24.8,3.1c10.4,1.2,20.9,2.3,31.3,3.5c10.3,1.2,20.7,2.4,31,3.7c4.4,0.6,9,0.4,12.7,3.6c3.2,2.8,6.4,5.6,9.6,8.5
			c9.5,8.4,19,16.7,28.5,25.1c10.1,8.9,20.2,17.7,30.4,26.5c4.2,3.7,8,7.8,14.7,7c5.8-0.7,9.6-3,11-8.9c2.5-10.5,4.9-21,7.2-31.6
			c5.4-24.1,10.7-48.1,16.1-72.2c3-13.5,6.3-27,9.4-40.5c4.7-20.7,9.2-41.4,13.9-62c5.5-24.6,11-49.3,16.5-73.9
			C538.2,204,539.6,197.6,540.3,194.3L540.3,194.3z"/>
	</g>
	<path class="st3" d="M199.6,205.4h175.6c5.4,0,9.8,4.4,9.8,9.8v16.9c0,5.4-4.4,9.8-9.8,9.8H199.6c-5.4,0-9.8-4.4-9.8-9.8v-16.9
		C189.9,209.8,194.2,205.4,199.6,205.4z"/>
	<path class="st3" d="M199.6,263.1h175.6c5.4,0,9.8,4.4,9.8,9.8v16.9c0,5.4-4.4,9.8-9.8,9.8H199.6c-5.4,0-9.8-4.4-9.8-9.8v-16.9
		C189.9,267.5,194.2,263.1,199.6,263.1z"/>
	<path class="st3" d="M199.6,320.9h175.6c5.4,0,9.8,4.4,9.8,9.8v16.9c0,5.4-4.4,9.8-9.8,9.8H199.6c-5.4,0-9.8-4.4-9.8-9.8v-16.9
		C189.9,325.3,194.2,320.9,199.6,320.9z"/>
</g>
</svg>
