<?xml version="1.0" encoding="UTF-8"?><svg xmlns="http://www.w3.org/2000/svg" viewBox="0 0 608 365.18"><defs><style>.f{stroke:#231f20;}.f,.g{stroke-miterlimit:10;}.f,.g,.h{fill:none;}.i{letter-spacing:-.05em;}.j{letter-spacing:0em;}.k{letter-spacing:0em;}.l{letter-spacing:0em;}.g,.h{stroke:#000;}.m{font-size:15px;}.m,.n{font-family:FoundersGrotesk-Regular, Founders Grotesk;}.m,.n,.o{fill:#231f20;}.h{stroke-dasharray:0 0 2 6;stroke-linecap:round;stroke-linejoin:round;stroke-width:2px;}.p{letter-spacing:0em;}.q{letter-spacing:0em;}.r{fill:#5b9b43;}.s{letter-spacing:.01em;}.t{letter-spacing:0em;}.u{letter-spacing:0em;}.v{fill:#e6d36b;}.w{letter-spacing:0em;}.x{letter-spacing:0em;}.y{letter-spacing:0em;}.a`{letter-spacing:0em;}.aa{letter-spacing:0em;}.ab{letter-spacing:-.01em;}.ac{letter-spacing:0em;}.n{font-size:16.04px;}.ad{letter-spacing:0em;}.ae{letter-spacing:0em;}.o{font-family:FoundersGrotesk-Medium, Founders Grotesk;font-size:17.83px;}.af{letter-spacing:0em;}.ag{letter-spacing:-.01em;}.ah{letter-spacing:-.04em;}</style></defs><g id="a"><line class="g" x1="78.71" y1="22.64" x2="78.71" y2="282.41"/><line class="g" x1="581.59" y1="278.39" x2="75.26" y2="278.39"/><line class="g" x1="581.59" y1="250.22" x2="75.26" y2="250.22"/><line class="g" x1="581.59" y1="222.06" x2="75.26" y2="222.06"/><line class="g" x1="581.59" y1="193.9" x2="75.26" y2="193.9"/><line class="g" x1="581.59" y1="165.74" x2="75.26" y2="165.74"/><line class="g" x1="581.59" y1="137.58" x2="75.26" y2="137.58"/><line class="g" x1="87.17" y1="109.42" x2="75.26" y2="109.42"/><line class="g" x1="87.17" y1="81.26" x2="75.26" y2="81.26"/><line class="g" x1="87.17" y1="53.1" x2="75.26" y2="53.1"/><line class="g" x1="581.59" y1="109.42" x2="232.19" y2="109.42"/><line class="g" x1="581.59" y1="81.26" x2="232.19" y2="81.26"/><line class="g" x1="581.59" y1="53.1" x2="232.19" y2="53.1"/><line class="g" x1="581.59" y1="24.94" x2="75.26" y2="24.94"/><line class="g" x1="581.59" y1="278.39" x2="581.59" y2="282.79"/><line class="g" x1="518.83" y1="278.39" x2="518.83" y2="282.79"/><line class="g" x1="456.07" y1="278.39" x2="456.07" y2="282.79"/><line class="g" x1="393.31" y1="278.39" x2="393.31" y2="282.79"/><line class="g" x1="330.55" y1="278.39" x2="330.55" y2="282.79"/><line class="g" x1="267.79" y1="278.39" x2="267.79" y2="282.79"/><line class="g" x1="205.03" y1="278.39" x2="205.03" y2="282.79"/><line class="g" x1="142.27" y1="278.39" x2="142.27" y2="282.79"/></g><g id="b"><text class="n" transform="translate(91.97 303.93)"><tspan class="i" x="0" y="0">F</tspan><tspan x="7.48" y="0">ei</tspan><tspan class="y" x="18.47" y="0">r</tspan><tspan x="23.68" y="0">a</tspan><tspan class="k" x="-2.29" y="19.25">C</tspan><tspan x="8.41" y="19.25">o</tspan><tspan class="l" x="16.49" y="19.25">n</tspan><tspan class="ah" x="24.37" y="19.25">v</tspan><tspan class="ac" x="31" y="19.25">.</tspan></text><text class="n" transform="translate(152.92 303.93)"><tspan x="0" y="0">Hi</tspan><tspan class="x" x="13.7" y="0">p</tspan><tspan x="22.19" y="0">er</tspan><tspan class="k" x="-.39" y="19.25">C</tspan><tspan x="10.32" y="19.25">o</tspan><tspan class="l" x="18.4" y="19.25">n</tspan><tspan class="ah" x="26.28" y="19.25">v</tspan><tspan class="ac" x="32.9" y="19.25">.</tspan></text><text class="n" transform="translate(213.82 303.93)"><tspan x="0" y="0">M</tspan><tspan class="x" x="11.97" y="0">é</tspan><tspan x="19.86" y="0">dio</tspan><tspan class="k" x="1.7" y="19.25">C</tspan><tspan x="12.4" y="19.25">o</tspan><tspan class="l" x="20.49" y="19.25">n</tspan><tspan class="ah" x="28.36" y="19.25">v</tspan><tspan class="ac" x="34.99" y="19.25">.</tspan></text><text class="n" transform="translate(276.22 303.93)"><tspan x="0" y="0">Online</tspan><tspan class="k" x="2.5" y="19.25">C</tspan><tspan x="13.2" y="19.25">o</tspan><tspan class="l" x="21.28" y="19.25">n</tspan><tspan class="ah" x="29.16" y="19.25">v</tspan><tspan class="ac" x="35.79" y="19.25">.</tspan></text><text class="n" transform="translate(343.59 303.93)"><tspan class="i" x="0" y="0">F</tspan><tspan x="7.48" y="0">ei</tspan><tspan class="y" x="18.47" y="0">r</tspan><tspan x="23.68" y="0">a</tspan><tspan x="2.34" y="19.25">O</tspan><tspan class="ag" x="13.4" y="19.25">r</tspan><tspan class="s" x="18.5" y="19.25">g</tspan><tspan x="26.36" y="19.25">.</tspan></text><text class="n" transform="translate(402.92 303.93)"><tspan x="0" y="0">M</tspan><tspan class="x" x="11.97" y="0">é</tspan><tspan x="19.86" y="0">dio</tspan><tspan x="6.34" y="19.25">O</tspan><tspan class="ag" x="17.39" y="19.25">r</tspan><tspan class="s" x="22.49" y="19.25">g</tspan><tspan x="30.35" y="19.25">.</tspan></text><text class="n" transform="translate(464.74 303.93)"><tspan x="0" y="0">Online</tspan><tspan x="7.13" y="19.25">O</tspan><tspan class="ag" x="18.19" y="19.25">r</tspan><tspan class="s" x="23.29" y="19.25">g</tspan><tspan x="31.15" y="19.25">.</tspan></text><text class="n" transform="translate(531.44 303.93)"><tspan x="0" y="0">Hi</tspan><tspan class="x" x="13.7" y="0">p</tspan><tspan x="22.19" y="0">er</tspan><tspan x="4.25" y="19.25">O</tspan><tspan class="ag" x="15.3" y="19.25">r</tspan><tspan class="s" x="20.41" y="19.25">g</tspan><tspan x="28.27" y="19.25">.</tspan></text></g><g id="c"><text class="m" transform="translate(52.77 282.79) scale(1.24 1)"><tspan x="0" y="0">0</tspan></text><text class="m" transform="translate(42.98 254.35) scale(1.24 1)"><tspan x="0" y="0">50</tspan></text><text class="m" transform="translate(36.42 225.9) scale(1.24 1)"><tspan x="0" y="0">100</tspan></text><text class="m" transform="translate(37.6 197.46) scale(1.24 1)"><tspan x="0" y="0">150</tspan></text><text class="m" transform="translate(32.39 169.02) scale(1.24 1)"><tspan x="0" y="0">200</tspan></text><text class="m" transform="translate(33.62 140.58) scale(1.24 1)"><tspan class="aa" x="0" y="0">2</tspan><tspan class="u" x="7.53" y="0">50</tspan></text><text class="m" transform="translate(32.19 112.13) scale(1.24 1)"><tspan x="0" y="0">300</tspan></text><text class="m" transform="translate(33.36 83.69) scale(1.24 1)"><tspan x="0" y="0">350</tspan></text><text class="m" transform="translate(31.61 55.25) scale(1.24 1)"><tspan x="0" y="0">400</tspan></text><text class="m" transform="translate(32.71 26.8) scale(1.24 1)"><tspan class="a`" x="0" y="0">4</tspan><tspan x="8.26" y="0">50</tspan></text><text class="o" transform="translate(16.74 199.02) rotate(-90)"><tspan x="0" y="0">P</tspan><tspan class="ab" x="10.22" y="0">r</tspan><tspan class="t" x="16.46" y="0">eç</tspan><tspan x="34.33" y="0">o (R$)</tspan></text><text class="o" transform="translate(260.25 361.53)"><tspan x="0" y="0">Ti</tspan><tspan class="j" x="15" y="0">p</tspan><tspan class="af" x="24.8" y="0">o</tspan><tspan x="34.01" y="0">s de Me</tspan><tspan class="ab" x="89.71" y="0">r</tspan><tspan x="95.95" y="0">c</tspan><tspan class="p" x="104.76" y="0">a</tspan><tspan x="113.71" y="0">d</tspan><tspan class="af" x="123.45" y="0">o</tspan><tspan x="132.65" y="0">s</tspan></text></g><g id="d"><rect class="f" x="87.17" y="26.98" width="145.02" height="91.35"/><text class="n" transform="translate(131.92 53.1)"><tspan x="0" y="0">O</tspan><tspan class="ag" x="11.05" y="0">r</tspan><tspan class="ae" x="16.16" y="0">g</tspan><tspan x="23.79" y="0">âni</tspan><tspan class="q" x="42.74" y="0">c</tspan><tspan x="50.6" y="0">o</tspan></text><text class="n" transform="translate(131.92 78.36)"><tspan class="k" x="0" y="0">C</tspan><tspan x="10.7" y="0">o</tspan><tspan class="l" x="18.79" y="0">n</tspan><tspan class="w" x="26.66" y="0">v</tspan><tspan x="33.84" y="0">encional</tspan></text><text class="n" transform="translate(131.92 99.41)"><tspan x="0" y="0">Institu</tspan><tspan class="ae" x="39.1" y="0">t</tspan><tspan x="43.94" y="0">o Ch</tspan><tspan class="ad" x="73.56" y="0">ã</tspan><tspan x="81.32" y="0">o</tspan></text></g><g id="e"><rect class="v" x="98.91" y="179.1" width="24.45" height="99.28"/><rect class="v" x="161.21" y="167.1" width="24.45" height="111.28"/><rect class="v" x="223" y="166.55" width="24.45" height="111.28"/><rect class="v" x="108.19" y="58.46" width="7.45" height="30.17" transform="translate(185.46 -38.36) rotate(90)"/><rect class="r" x="108.19" y="34.97" width="7.45" height="30.17" transform="translate(161.97 -61.85) rotate(90)"/><rect class="v" x="286.57" y="160.97" width="24.45" height="116.86"/><rect class="r" x="349.38" y="130.59" width="24.45" height="147.24"/><rect class="r" x="412.95" y="95.87" width="24.45" height="181.97"/><rect class="r" x="474.49" y="85.4" width="24.45" height="192.44"/><rect class="r" x="538.06" y="53.1" width="24.45" height="224.74"/><line class="h" x1="96.36" y1="95.1" x2="122.91" y2="95.1"/><line class="h" x1="96.36" y1="181.65" x2="581.59" y2="181.65"/></g></svg>